<svg xmlns="http://www.w3.org/2000/svg" id="Layer_1" viewBox="0 0 136.17 139.05"><defs><style>.cls-1{fill:#1988c8;}.cls-1,.cls-2{stroke-width:0px;}.cls-2{fill:#03a9aa;}</style></defs><polygon class="cls-2" points="30.49 131.56 35.27 131.56 35.27 122.01 44.46 122.01 44.46 117.5 35.27 117.5 35.27 111.59 45.99 111.59 45.99 107.07 30.49 107.07 30.49 131.56"></polygon><path class="cls-2" d="m69.25,112.72c-1.36,0-2.52.31-3.49.94-.97.63-1.75,1.44-2.35,2.43-.55-1.08-1.32-1.92-2.33-2.5-1.01-.59-2.18-.88-3.51-.88-1.07,0-2.04.22-2.91.65-.87.44-1.58,1.05-2.14,1.83v-1.94h-4.66v18.29h4.66v-10.38c0-1.24.33-2.23.98-2.96.65-.73,1.54-1.09,2.66-1.09s1.96.36,2.61,1.09c.65.73.97,1.71.97,2.96v10.38h4.66v-10.38c0-1.24.33-2.23.98-2.96.65-.73,1.54-1.09,2.66-1.09s1.96.36,2.61,1.09c.65.73.97,1.71.97,2.96v10.38h4.66v-11.08c0-2.41-.64-4.31-1.91-5.69-1.27-1.38-2.98-2.07-5.12-2.07"></path><path class="cls-2" d="m92.15,123.15c0,1.33-.36,2.41-1.07,3.24-.71.83-1.66,1.24-2.82,1.24s-2.11-.41-2.83-1.24c-.72-.83-1.07-1.9-1.07-3.24v-9.88h-4.66v10.24c0,2.56.78,4.62,2.35,6.18,1.57,1.56,3.64,2.34,6.21,2.34s4.64-.78,6.21-2.34c1.57-1.56,2.35-3.62,2.35-6.18v-10.24h-4.66v9.88Z"></path><path class="cls-2" d="m112.25,122.31c-.58-.39-1.22-.73-1.92-1.01-.7-.28-1.41-.51-2.11-.7-.7-.19-1.34-.38-1.92-.57-.58-.19-1.05-.44-1.41-.75-.36-.3-.54-.67-.54-1.09,0-.51.23-.92.69-1.24.46-.32,1.08-.48,1.86-.48,1.86,0,3.37.68,4.51,2.03l2.63-2.76c-.7-.96-1.67-1.7-2.93-2.23-1.26-.53-2.7-.79-4.33-.79-2.21,0-3.94.53-5.18,1.6-1.24,1.07-1.86,2.35-1.86,3.86,0,.7.11,1.33.34,1.89.22.57.53,1.04.9,1.42.38.38.81.72,1.31,1.02.49.3,1.01.55,1.56.75s1.09.38,1.63.55c.54.17,1.06.33,1.55.49.49.16.93.34,1.3.52.38.19.68.42.9.69.22.27.34.59.34.93,0,.59-.24,1.05-.71,1.39-.47.34-1.14.51-2.01.51-2.16,0-3.95-.78-5.35-2.33l-2.59,2.98c.82.96,1.89,1.71,3.2,2.27,1.31.55,2.81.83,4.49.83,2.39,0,4.25-.55,5.59-1.65,1.34-1.1,2-2.46,2-4.09,0-.93-.18-1.74-.54-2.43-.36-.69-.83-1.23-1.41-1.62"></path><path class="cls-2" d="m130.15,126.2c-.92,1.01-2.08,1.51-3.49,1.51s-2.55-.51-3.47-1.52c-.92-1.01-1.38-2.26-1.38-3.74s.46-2.75,1.39-3.78c.93-1.02,2.08-1.54,3.46-1.54s2.57.51,3.49,1.54c.92,1.02,1.38,2.28,1.38,3.78s-.46,2.74-1.38,3.75m3.48-10.73c-1.7-1.82-3.78-2.73-6.24-2.73-2.26,0-4.12.85-5.58,2.54v-2h-4.66v25.77h4.66v-9.31c1.38,1.58,3.24,2.37,5.58,2.37,2.52,0,4.62-.93,6.29-2.78,1.67-1.85,2.5-4.17,2.5-6.94s-.85-5.11-2.55-6.93"></path><path class="cls-2" d="m80.52,60.79c0,25.52,20.76,46.29,46.29,46.29h9.33v-22.76h-9.33c-12.97,0-23.52-10.55-23.52-23.52,0-12.27,9.45-22.37,21.45-23.43h0c6.41-.65,11.4-6.06,11.4-12.64v-10.22h-9.33c-25.52,0-46.29,20.76-46.29,46.29"></path><rect class="cls-2" x="30.49" y="33.17" width="23.12" height="23.12"></rect><rect class="cls-1" y="33.17" width="30.49" height="23.12"></rect><path class="cls-1" d="m53.61,0h-10.42c-7.01,0-12.7,5.69-12.7,12.7v20.47h23.12V0Z"></path><path class="cls-1" d="m30.49,89.47h10.39c7.01,0,12.7-5.69,12.7-12.7l.03.08v-20.55h-23.12v33.17Z"></path><path class="cls-1" d="m80.52,33.17h-26.91v23.12h27.12c1.47-15.2,10.32-28.26,22.9-35.57V0h-23.12v33.17Z"></path></svg>